<svg width="17" height="17" viewBox="0 0 17 17" fill="none" xmlns="http://www.w3.org/2000/svg">
<mask id="mask0_1_300" style="mask-type:alpha" maskUnits="userSpaceOnUse" x="0" y="0" width="17" height="17">
<path d="M15.7272 0.0350297L0.373266 5.69174C0.130027 5.78306 -0.0243204 6.02791 0.0031552 6.28812C0.0298227 6.54914 0.230232 6.75763 0.489633 6.79399L8.55045 7.94554L9.702 16.0064C9.73836 16.2658 9.94766 16.467 10.2071 16.4936C10.3832 16.513 10.5529 16.4484 10.6717 16.3296C10.7291 16.2722 10.7744 16.2027 10.8034 16.1235L16.4601 0.769594C16.5377 0.559488 16.486 0.325138 16.3284 0.167559C16.1709 0.00997888 15.9365 -0.0417397 15.7272 0.0350297Z" fill="#FDBF5A"/>
</mask>
<g mask="url(#mask0_1_300)">
<path d="M15.7272 0.0350297L0.373266 5.69174C0.130027 5.78306 -0.0243204 6.02791 0.0031552 6.28812C0.0298227 6.54914 0.230232 6.75763 0.489633 6.79399L8.55045 7.94554L9.702 16.0064C9.73836 16.2658 9.94766 16.467 10.2071 16.4936C10.3832 16.513 10.5529 16.4484 10.6717 16.3296C10.7291 16.2722 10.7744 16.2027 10.8034 16.1235L16.4601 0.769594C16.5377 0.559488 16.486 0.325138 16.3284 0.167559C16.1709 0.00997888 15.9365 -0.0417397 15.7272 0.0350297Z" fill="#FDBF5A"/>
<path d="M17.3583 -0.77063L8.35828 8.22937C8.85828 11.5627 9.85828 18.3294 9.85828 18.7294C9.85828 19.1294 13.8583 18.896 15.8583 18.7294L17.3583 -0.77063Z" fill="#E5AB4C"/>
</g>
</svg>
