<svg width="15" height="14" viewBox="0 0 15 14" fill="none" xmlns="http://www.w3.org/2000/svg">
<path d="M11.9393 0.43934C12.5251 -0.146447 13.4749 -0.146446 14.0607 0.43934C14.6464 1.02513 14.6464 1.97487 14.0607 2.56066L3.45406 13.1673C2.86827 13.753 1.91852 13.753 1.33274 13.1673C0.746952 12.5815 0.746952 11.6317 1.33274 11.0459L11.9393 0.43934Z" fill="#C4C4C4"/>
<path d="M3.06066 0.43934C2.47487 -0.146447 1.52513 -0.146446 0.93934 0.43934C0.353553 1.02513 0.353553 1.97487 0.93934 2.56066L11.5459 13.1673C12.1317 13.753 13.0815 13.753 13.6673 13.1673C14.253 12.5815 14.253 11.6317 13.6673 11.0459L3.06066 0.43934Z" fill="#C4C4C4"/>
</svg>
