<svg preserveAspectRatio="none" viewBox="0 0 196 36" fill="none" xmlns="http://www.w3.org/2000/svg">
<path d="M16.6458 5.16L14.8458 11.172H6.13375L7.78975 5.232L16.6458 5.16ZM23.4138 23.844L18.3738 29.964H0.87775L5.52175 13.548H14.2698L11.3898 23.808L23.4138 23.844ZM51.0828 11.208H27.3588C27.8388 9.576 28.6548 8.196 29.8068 7.068C31.2228 5.7 32.6868 5.016 34.1988 5.016H46.4388C49.5348 5.016 51.0828 6.66 51.0828 9.948C51.0828 10.764 51.0828 11.184 51.0828 11.208ZM50.5788 13.512L50.4348 14.088C50.0508 15.336 49.3908 17.616 48.4548 20.928C47.8548 23.016 46.9308 24.768 45.6828 26.184C43.4268 28.728 40.4028 30 36.6108 30H32.3268C30.0228 30 28.1988 29.568 26.8548 28.704C25.1988 27.672 24.3708 26.076 24.3708 23.916C24.3708 22.764 24.5508 21.54 24.9108 20.244L26.7108 13.584H35.0988L32.6148 22.332C32.5188 22.74 32.4708 23.052 32.4708 23.268C32.4708 23.748 32.6868 24.048 33.1188 24.168H38.3388C38.9868 24 39.4668 23.388 39.7788 22.332L42.3708 13.548L50.5788 13.512ZM76.5149 5.16L74.7869 11.208H51.4229L55.2749 5.16H76.5149ZM74.2829 13.548L72.3029 20.136H60.7469L58.0469 29.964H48.5789L53.1509 13.548H74.2829ZM102.46 5.16L100.804 11.136H76.8276L80.6436 5.16H102.46ZM93.1356 13.548L88.7796 29.964H80.5356L84.9996 13.548H93.1356Z" fill="white"/>
<path d="M128.792 5.16L127.136 11.136H103.16L106.976 5.16H128.792ZM119.468 13.548L115.112 29.964H106.868L111.332 13.548H119.468ZM150.984 11.208H135.432L140.616 5.16H149.688L150.984 11.208ZM155.016 29.964H145.98L143.532 20.172H138.42L131.184 29.964H120.636L133.524 13.512H151.488L155.016 29.964ZM185.421 5.196L179.625 11.172L162.201 11.136L160.761 5.268H169.797L170.481 8.076L173.145 5.232L185.421 5.196ZM177.393 13.548L173.037 18.336L175.485 30L166.125 29.964L165.441 26.94L162.741 30H150.536L163.173 16.032L162.669 13.62L177.393 13.548ZM195.114 5.16L193.458 11.208H184.782L186.51 5.16H195.114ZM192.918 13.548L188.418 29.964H179.67L184.242 13.548H192.918Z" fill="currentColor"/>
</svg>
